<svg xmlns="http://www.w3.org/2000/svg" width="201.176" height="264.902" viewBox="0 0 437 575" shape-rendering="geometricPrecision" text-rendering="geometricPrecision" image-rendering="optimizeQuality" fill-rule="evenodd" clip-rule="evenodd"><defs><style>.fil16{fill:#4f1f0a}.fil7{fill:#57220b}.fil0{fill:#803110}.fil4{fill:#993b13}.fil3{fill:#a33f14}.fil15,.fil9{fill:#b34618}.fil2{fill:#b5481a}.fil11{fill:#e0e0e0}.fil14{fill:#f59c5d}.fil10{fill:#fff}</style></defs><g id="Layer_x0020_1"><path class="fil0" d="M53 459c-5 9-15 16-26 16-4 0-7-1-11-3-8-3-14-10-16-19 2 12 8 24 16 32s19 13 31 15c0-13 2-27 6-41z"/><path d="M104 531c34-26 67-13 79 26 4 12 23 30 40 9 6-7 10-18 17-27 13-6 29-14 29-23 2-29-54-70-77-106-17-29-16-26-22-43l-6-18C55 336-16 624 104 531z" fill="#c24e1d"/><path class="fil0" d="M104 531c32-25 63-14 77 21 0-24-30-62-56-77-44-25-84 67-34 55 7-2 11-1 13 1z"/><path class="fil2" d="M315 537c3 5 5 10 7 15 9 22 22 19 28 6 10-21 14-102 14-118-6 3-42 78-47 77-6 5 1 13-2 20z"/><path class="fil3" d="M315 537c3 4 4 9 6 14 18-17 27-54 25-53 0 0-6-7-11-9-9 16-16 29-18 28-6 5 1 13-2 20z"/><path class="fil3" d="M361 493c1-9 1-18 2-26-4-1-10-1-15-1-7 12-14 26-20 36h4s17-5 29-9z"/><path class="fil4" d="M384 170c82-51 59 58-2 64-33 4-29-45 2-64z"/><path d="M385 219c2-13 11-59 39-50 6 2 6 9 1 22-6 13-24 32-30 34-5 2-13-2-10-6z" fill="#57220b"/><circle cx="286" cy="277" r="124" fill="none"/><path class="fil4" d="M140 244c-93-5-42 82 19 57 32-13 16-55-19-57z"/><path class="fil7" d="M162 290c-7-21-27-42-51-32-28 10 15 60 51 32z"/><path d="M286 153c-24 0-47 7-66 19-71 45-85 148-22 203 11 9 31 12 42 22 49 45 0 83 82 91 144 13 138-335-36-335z" fill="#c24e1d"/><path class="fil9" d="M244 271c1 22-15 58 26 79-68-11-47-67-26-79z"/><ellipse class="fil10" transform="matrix(1.46724 -.57598 .62377 1.58897 263.088 308.835)" rx="19" ry="25"/><path class="fil9" d="M350 311c11 7 24 7 24 7-9-1-22-15-29-24-1-2-2-5-3-8-4-10-4-20-2-28 1-8 5-14 10-18 0-1 1-1 2-2-1 0-2 1-2 1-26 12-24 46-8 65 2 3 5 5 8 7z"/><ellipse class="fil10" transform="matrix(1.48418 -.49668 .53365 1.62007 369.211 276.781)" rx="19" ry="25"/><circle class="fil0" cx="322" cy="445" r="10"/><circle class="fil0" cx="377" cy="435" r="10"/><path class="fil11" d="M279 348c8-3 13-11 15-22-25 15-55-4-62-32-1 8 0 17 4 26 7 17 21 29 34 30 3 0 6-1 9-2zm71-46c6 9 15 15 24 16 3 0 6 0 8-1 10-3 16-13 18-26-31 24-58 5-60-33-2 8-2 18 2 28 1 3 2 6 3 8 1 3 3 5 5 8z"/><circle class="fil7" transform="rotate(-13.087 1465.752 -1031.803) scale(1.57625)" r="12"/><circle class="fil11" transform="rotate(-13.087 1416.11 -1069.018) scale(.29068)" r="12"/><circle class="fil7" transform="matrix(1.5522 -.27427 .27427 1.5522 376.568 270.828)" r="12"/><circle class="fil11" transform="rotate(-13.087 1319.455 -1539.531) scale(.29068)" r="12"/><path class="fil2" d="M413 413c9-27 12-59 10-91-1 2-3 4-4 7-11 15-21 55-20 85 5 1 9 3 13 4 0-1 1-3 1-5z"/><path d="M322 455c-6 0-10-5-10-10 0-6 4-10 10-10 5 0 10 4 10 10 0 5-5 10-10 10zm77-41c-9-3-18-4-28-4h-16c-35 3-70 18-88 38 0 2 1 4 1 5 4 18 11 31 54 35 11 1 21 0 30-3 1 0 2 0 3-1 26-9 45-34 57-66-4-1-8-3-13-4zm-32 21c0-6 4-10 10-10s10 4 10 10c0 5-4 10-10 10s-10-5-10-10z" fill="#9b3d15"/><path d="M172 341c-67 26 98 163 68 198 0 0 32-7 47-5s28 3 28 3 1-1 2-3c2-2 4-6 6-10 4-7 6-13 13-36-5 1-9 0-14 0-48-4-51-19-55-40-3-15-7-32-27-51-11-10-31-13-42-22-11-10-20-21-26-34z" fill="#e68c4c"/><path class="fil14" d="M172 341c-41 16 5 73 40 124 20-10 7-56-3-73-3-6-5-10-6-14-2-1-3-2-5-3-11-10-20-21-26-34z"/><path class="fil15" d="M161 256c-10 42 2 88 37 119 11 9 31 12 42 22 20 19 24 36 27 51 5-5 11-10 18-15 0 0-3-21-16-44-14-24-24-31-39-37-47-18-65-48-69-96z"/><path class="fil15" d="M286 153c-24 0-47 7-66 19-71 45-85 148-22 203 3 2 7 4 11 6-1-6-3-14-9-24-36-58 29-204 101-193l9-9c-7-1-15-2-24-2z"/><circle class="fil16" cx="319" cy="443" r="7"/><circle class="fil16" cx="375" cy="433" r="7"/><path class="fil9" d="M212 465c-31-45-70-95-51-116-18-2-35 5-50 17-2 6-2 14 4 24 13 24 33 51 56 82 18 24 56 57 56 89 4-7 7-15 13-22 12-14-6-43-28-74z"/><path class="fil14" d="M114 44c-2 30 20 97 44 149 9 20 24 62 59 47 19-8 32-26 16-52-12-25-82-119-104-144-7-7-15-7-15 0zm232 117c14 53-52 46-60 22-8-16-44-176-39-181 23-23 93 138 99 159z"/><path d="M123 56c-4-8-3-14-2-17-4-1-7 1-7 5-2 30 20 97 44 149 3 8 8 20 15 30 0 1 0 1 1 1 7 12 18 21 32 19 3 0 7-1 11-3 12-4 17-13 18-14-40-1-48-56-112-170zm184 99c-29-57-51-136-53-142-2-5-2-10-2-13-2 0-4 1-5 2-4 4 17 100 30 151l3 12c2 9 4 15 6 18 5 15 32 23 48 15-9-10-18-24-26-41 0-1-1-1-1-2z" fill="#e68c4c"/></g></svg>